HIERARCHY
ROOT Hips
{
	OFFSET -0.179506 -22.333345 2.821913
	CHANNELS 6 Xposition Yposition Zposition Zrotation Yrotation Xrotation 
	JOINT LeftUpLeg
	{
		OFFSET 6.951974 -9.140623 -0.681533
		CHANNELS 3 Zrotation Yrotation Xrotation
		JOINT LeftLeg
		{
			OFFSET 3.427654 -37.519855 -0.449580
			CHANNELS 3 Zrotation Yrotation Xrotation
			JOINT LeftFoot
			{
				OFFSET -1.359570 -39.796059 -4.369333
				CHANNELS 3 Zrotation Yrotation Xrotation
				JOINT LeftToe
				{
					OFFSET 2.635814 -5.579078 11.928840
					CHANNELS 3 Zrotation Yrotation Xrotation
					End Site
					{
						OFFSET 0.000000 0.000000 0.000000
					}
				}
			}
		}
	}
	JOINT RightUpLeg
	{
		OFFSET -6.767048 -9.052170 -0.431982
		CHANNELS 3 Zrotation Yrotation Xrotation
		JOINT RightLeg
		{
			OFFSET -3.829005 -38.256897 -0.885003
			CHANNELS 3 Zrotation Yrotation Xrotation
			JOINT RightFoot
			{
				OFFSET 1.577377 -39.841461 -4.231180
				CHANNELS 3 Zrotation Yrotation Xrotation
				JOINT RightToe
				{
					OFFSET -2.537174 -4.814398 12.334795
					CHANNELS 3 Zrotation Yrotation Xrotation
					End Site
					{
						OFFSET 0.000000 0.000000 0.000000
					}
				}
			}
		}
	}
	JOINT Spine
	{
		OFFSET -0.253288 10.896323 -2.669631
		CHANNELS 3 Zrotation Yrotation Xrotation
		JOINT Spine1
		{
			OFFSET 0.548704 13.518043 0.109247
			CHANNELS 3 Zrotation Yrotation Xrotation
			JOINT Spine2
			{
				OFFSET 0.145701 5.292222 2.542457
				CHANNELS 3 Zrotation Yrotation Xrotation
				JOINT Neck
				{
					OFFSET -0.277840 21.387037 -4.285703
					CHANNELS 3 Zrotation Yrotation Xrotation
					JOINT Head
					{
						OFFSET 0.515184 6.496960 5.134897
						CHANNELS 3 Zrotation Yrotation Xrotation
						End Site
						{
							OFFSET 0.000000 0.000000 0.000000
						}
					}
				}
				JOINT LeftShoulder
				{
					OFFSET 7.884473 12.174932 -3.408961
					CHANNELS 3 Zrotation Yrotation Xrotation
					JOINT LeftArm
					{
						OFFSET 9.097692 3.046888 -0.886815
						CHANNELS 3 Zrotation Yrotation Xrotation
						JOINT LeftForeArm
						{
							OFFSET 25.961220 -1.277207 -2.745643
							CHANNELS 3 Zrotation Yrotation Xrotation
							JOINT LeftHand
							{
								OFFSET 24.923361 0.898606 -0.117091
								CHANNELS 3 Zrotation Yrotation Xrotation
								End Site
								{
									OFFSET 0.000000 0.000000 0.000000
								}
							}
						}
					}
				}
				JOINT RightShoulder
				{
					OFFSET -8.175920 11.883285 -3.861528
					CHANNELS 3 Zrotation Yrotation Xrotation
					JOINT RightArm
					{
						OFFSET -9.601238 3.255117 -0.914307
						CHANNELS 3 Zrotation Yrotation Xrotation
						JOINT RightForeArm
						{
							OFFSET -25.374195 -1.332924 -2.140099
							CHANNELS 3 Zrotation Yrotation Xrotation
							JOINT RightHand
							{
								OFFSET -25.529810 0.777228 -0.555919
								CHANNELS 3 Zrotation Yrotation Xrotation
								End Site
								{
									OFFSET 0.000000 0.000000 0.000000
								}
							}
						}
					}
				}
			}
		}
	}
}
MOTION
Frames: 18
Frame Time: 0.033333
-50.081264 -352.347565 97.958321 -179.713600 1.098828 90.231504 0.752942 0.829204 3.934023 2.670359 -5.237710 -6.318436 -2.711373 7.055593 0.075490 nan nan nan 0.070370 -2.849331 2.318737 0.484813 -1.888572 -2.711697 6.752080 -5.013150 1.716464 nan nan nan -0.020997 2.213754 3.022619 1.676612 -2.165348 3.388894 1.558176 -0.893237 -1.704417 -1.240215 -3.710044 -0.281122 4.829618 -4.520988 -6.172199 -21.581426 1.930407 -0.150891 -63.461150 -5.297630 12.534027 6.173275 -24.571157 -6.076246 -9.060689 -15.633947 -11.419936 20.205421 5.165854 0.570236 59.419636 6.935296 15.395422 -4.280238 23.448807 -2.417057 10.884239 12.968945 -10.709023 
-50.065456 -352.358765 97.956703 -179.734024 1.167495 90.232881 0.867210 0.858991 3.951401 2.601508 -5.224228 -6.361960 -2.759388 7.152427 0.079348 nan nan nan 0.239668 -2.816455 2.305416 0.346866 -1.858373 -2.696033 6.656023 -5.100723 1.619586 nan nan nan 0.080517 2.101741 3.085963 1.625146 -2.163339 3.149252 1.522900 -0.880781 -1.537297 -1.207496 -3.702466 -0.337933 4.761572 -4.380890 -5.930796 -21.639829 1.989342 -0.061296 -63.320966 -5.343440 12.449652 6.039416 -24.807554 -5.900794 -8.681488 -15.469698 -11.612862 20.184197 5.252246 0.582934 59.337739 7.091161 15.512261 -3.960971 23.303860 -2.189992 10.725037 12.823873 -10.848194 
-50.060211 -352.345245 97.955589 -179.748496 1.168503 90.234709 0.871036 0.861165 3.962036 2.600499 -5.217970 -6.367629 -2.757568 7.161285 0.077035 nan nan nan 0.245108 -2.805642 2.302691 0.331751 -1.864094 -2.690962 6.658455 -5.107734 1.629936 nan nan nan 0.069512 2.110434 3.087142 1.617197 -2.148919 3.156073 1.518544 -0.856617 -1.538034 -1.216430 -3.719250 -0.336570 4.775569 -4.403309 -5.933110 -21.636755 1.965313 -0.043559 -63.311353 -5.348802 12.447804 6.039944 -24.801730 -5.920654 -8.683833 -15.476537 -11.622975 20.192278 5.311691 0.609906 59.335289 7.063116 15.520429 -3.981655 23.301061 -2.227912 10.714093 12.848973 -10.909707 
-50.025208 -352.310547 97.956474 -179.784083 1.168315 90.217190 0.910047 0.856498 4.032384 2.591613 -5.192951 -6.402677 -2.716207 7.207115 0.000900 nan nan nan 0.305258 -2.655787 2.407112 0.283252 -1.647774 -2.828904 6.756141 -4.991027 1.471323 nan nan nan 0.012706 2.160494 3.065729 1.603705 -2.105257 3.248500 1.536749 -0.755285 -1.571107 -1.261193 -3.787154 -0.416302 4.864529 -4.516672 -5.954327 -21.696896 1.735144 0.064105 -63.154451 -5.304343 12.408626 6.032731 -24.911808 -6.001139 -8.691865 -15.534466 -11.654047 20.277691 5.635579 0.834709 59.246354 6.851303 15.492702 -4.146306 23.467665 -2.428518 10.608268 12.989985 -11.149330 
-50.047691 -352.290894 97.954834 -179.855428 1.177271 90.197749 0.906597 0.906334 4.107211 2.591870 -5.093362 -6.460994 -2.706890 7.257260 -0.026988 nan nan nan 0.291750 -2.743182 2.369441 0.268458 -1.880795 -2.726270 6.756131 -5.113838 1.670083 nan nan nan -0.012100 2.166850 3.040879 1.620937 -2.058344 3.248489 1.551121 -0.763244 -1.521424 -1.247937 -3.693726 -0.457712 4.780140 -4.517875 -5.855573 -21.748532 1.768393 0.081232 -63.151279 -5.306187 12.390178 6.103830 -24.979093 -5.946618 -8.702549 -15.548601 -11.567973 20.393773 5.592384 0.880354 59.151432 6.863970 15.453943 -4.258745 23.571921 -2.422559 10.555277 12.955385 -11.037573 
-50.058262 -352.251373 97.946304 -179.758781 1.241148 90.174245 0.984385 0.888073 4.142783 2.568960 -5.157308 -6.453571 -2.778834 7.227494 -0.096827 nan nan nan 0.365202 -2.645243 2.578281 0.251508 -1.576976 -2.928176 6.861896 -4.986253 1.453276 nan nan nan -0.007689 2.144429 2.957623 1.662198 -2.097637 3.222238 1.569856 -0.877136 -1.426030 -1.217110 -3.611003 -0.358080 4.688536 -4.417381 -5.692411 -21.755104 1.884848 0.033454 -63.156477 -5.326522 12.390384 6.019804 -24.953242 -5.770483 -8.576964 -15.452102 -11.580276 20.431467 5.317204 0.623373 59.108496 7.032185 15.513433 -4.047235 23.357825 -2.205944 10.650703 12.814204 -10.825843 
-50.063568 -352.249786 97.945984 -179.770428 1.198185 90.195008 0.930896 0.849151 4.113796 2.545534 -5.150484 -6.421670 -2.785577 7.227028 -0.127913 nan nan nan 0.349051 -2.739207 2.520318 0.180718 -1.795479 -2.933645 6.826251 -5.157093 1.722530 nan nan nan -0.064623 2.172010 2.946205 1.648640 -2.069349 3.201297 1.567595 -0.921351 -1.399875 -1.191254 -3.560017 -0.329368 4.696544 -4.381511 -5.602920 -21.745469 1.895660 0.049306 -63.164179 -5.411449 12.395144 6.020272 -24.752194 -5.849053 -8.511088 -15.417574 -11.577157 20.437961 5.281893 0.528518 59.137481 7.131809 15.538307 -3.985800 23.146158 -2.213910 10.625368 12.792699 -10.770885 
-50.060852 -352.237976 97.940758 -179.735633 1.191725 90.244640 0.931980 0.857135 4.027809 2.524780 -5.106869 -6.349502 -2.760733 7.252424 -0.229461 nan nan nan 0.378313 -2.759409 2.443845 0.166051 -1.831995 -2.893971 6.756224 -5.168795 1.617654 nan nan nan -0.099262 2.154867 2.959418 1.666674 -2.110324 3.173122 1.576379 -0.916392 -1.429551 -1.223929 -3.500834 -0.280719 4.701199 -4.339682 -5.713066 -21.637365 1.960960 -0.053673 -63.336557 -5.361538 12.396928 5.815817 -24.534559 -6.064967 -8.626575 -15.281593 -11.872424 20.372916 5.276597 0.445995 59.200519 7.156444 15.550002 -3.934936 23.048943 -2.344173 10.748918 12.846947 -10.809361 
-50.066345 -352.208374 97.929924 -179.640662 1.236701 90.277041 0.966266 0.787408 3.945326 2.530817 -5.069452 -6.249733 -2.742311 7.254793 -0.371218 nan nan nan 0.432138 -2.597258 2.562225 0.177717 -1.472336 -2.998650 6.725992 -4.907500 1.446917 nan nan nan -0.102918 2.135249 2.894275 1.702708 -2.187839 3.208918 1.595776 -0.901854 -1.432182 -1.190968 -3.516354 -0.184729 4.758171 -4.335258 -5.880267 -21.567039 1.985820 -0.095829 -63.561679 -5.337257 12.347782 5.675657 -24.584380 -6.338465 -8.822226 -15.241686 -12.276882 20.290632 5.234001 0.439615 59.249987 7.190862 15.523548 -3.933980 23.072014 -2.486727 10.921030 12.880037 -10.900480 
-50.065804 -352.203674 97.924332 -179.642124 1.256464 90.309536 0.960761 0.754071 3.896937 2.556364 -5.067896 -6.198386 -2.710210 7.265358 -0.390428 nan nan nan 0.435627 -2.578769 2.543925 0.195480 -1.406443 -3.009197 6.733134 -4.871195 1.431109 nan nan nan -0.090878 2.122093 2.887942 1.702442 -2.206968 3.189638 1.583350 -0.882503 -1.420442 -1.132491 -3.441980 -0.199592 4.754384 -4.265126 -5.886949 -21.536342 2.078830 -0.167980 -63.635743 -5.332820 12.325664 5.613367 -24.748489 -6.345413 -8.844930 -15.150528 -12.331693 20.268180 5.118277 0.430573 59.270140 7.275177 15.532686 -3.846149 23.128436 -2.346800 10.947941 12.773784 -10.712319 
-50.058353 -352.220459 97.925018 -179.729873 1.273155 90.340681 0.963682 0.750442 3.869232 2.550897 -5.083359 -6.174633 -2.685823 7.275191 -0.333288 nan nan nan 0.462491 -2.615365 2.439950 0.202343 -1.503415 -2.938227 6.766849 -4.961967 1.275748 nan nan nan -0.078593 2.109514 2.937393 1.693866 -2.192176 3.116469 1.590325 -0.906780 -1.443876 -1.153800 -3.355289 -0.160235 4.724831 -4.179472 -5.864550 -21.527568 2.166657 -0.206004 -63.643755 -5.299731 12.287397 5.535857 -24.780124 -6.348250 -8.781305 -15.069049 -12.409445 20.204306 5.092741 0.385620 59.304088 7.365922 15.583924 -3.702920 23.070012 -2.201717 10.921923 12.697803 -10.588015 
-50.065071 -352.216400 97.919724 -179.736814 1.271157 90.353527 0.953108 0.745879 3.859030 2.544284 -5.094653 -6.167653 -2.682409 7.277800 -0.317829 nan nan nan 0.455278 -2.609633 2.418874 0.188938 -1.496954 -2.916028 6.769773 -4.966767 1.272196 nan nan nan -0.082258 2.106823 2.943463 1.692746 -2.195416 3.124270 1.587103 -0.906370 -1.468639 -1.155216 -3.349657 -0.178801 4.728285 -4.167444 -5.859725 -21.538978 2.178499 -0.224708 -63.604024 -5.300144 12.290814 5.573209 -24.780739 -6.339922 -8.762989 -15.076439 -12.340036 20.225641 5.084627 0.375035 59.288673 7.366528 15.584320 -3.700906 23.070331 -2.190187 10.916873 12.697364 -10.541869 
-50.076805 -352.221313 97.913132 -179.767510 1.208628 90.447977 0.886919 0.737281 3.772540 2.522985 -5.168901 -6.195172 -2.676202 7.259838 -0.160040 nan nan nan 0.382295 -2.697637 2.195160 0.136180 -1.697616 -2.749822 6.786956 -5.124415 1.546426 nan nan nan -0.139391 2.118403 2.964956 1.665451 -2.173411 3.131453 1.539184 -0.877622 -1.592236 -1.128774 -3.419318 -0.310950 4.763738 -4.178786 -5.788826 -21.615436 2.274961 -0.324898 -63.430588 -5.292368 12.398132 5.821995 -24.775080 -6.193435 -8.678696 -15.157200 -11.809180 20.364012 5.022409 0.355849 59.207379 7.319942 15.585476 -3.711264 23.129595 -2.100269 10.887997 12.732609 -10.287855 
-50.086975 -352.217743 97.916290 -179.740879 1.213457 90.499471 0.884929 0.713188 3.712025 2.500286 -5.182505 -6.180069 -2.657116 7.218563 -0.084082 nan nan nan 0.388088 -2.651498 2.170798 0.149098 -1.596224 -2.774414 6.857967 -5.049212 1.757819 nan nan nan -0.136998 2.137870 2.945022 1.670564 -2.160654 3.101085 1.539001 -0.905972 -1.613901 -1.173109 -3.520067 -0.297524 4.773770 -4.207231 -5.792828 -21.618969 2.273611 -0.322838 -63.450491 -5.270072 12.482544 5.882680 -24.752284 -6.046931 -8.656244 -15.223937 -11.648391 20.307361 5.010892 0.395964 59.231026 7.288098 15.594669 -3.702583 23.230451 -2.070046 10.891275 12.787565 -10.340361 
-50.107674 -352.173279 97.904404 -179.735523 1.226114 90.476826 0.900351 0.723807 3.784275 2.476080 -5.161154 -6.220583 -2.674719 7.246600 -0.146147 nan nan nan 0.389539 -2.705893 2.253629 0.151777 -1.732949 -2.859011 6.909365 -5.152532 1.604137 nan nan nan -0.085684 2.122783 2.978190 1.641844 -2.159662 2.989301 1.530968 -0.947963 -1.538878 -1.186466 -3.516004 -0.286140 4.754317 -4.196722 -5.803056 -21.616273 2.273845 -0.232632 -63.443494 -5.210780 12.425314 5.888911 -24.880497 -5.974325 -8.611299 -15.246130 -11.778551 20.252580 4.991712 0.402378 59.281182 7.236750 15.577485 -3.698258 23.350651 -1.996679 10.834422 12.795267 -10.479452 
-50.135666 -352.148132 97.895493 -179.711529 1.223178 90.502219 0.897990 0.717018 3.739853 2.430127 -5.121860 -6.158777 -2.683014 7.304668 -0.246500 nan nan nan 0.351652 -2.674307 2.256788 0.153078 -1.683111 -2.868402 6.927928 -5.130201 1.572083 nan nan nan -0.060354 2.105262 2.981782 1.627739 -2.167446 2.911359 1.510460 -0.969359 -1.496077 -1.174248 -3.543024 -0.321239 4.721813 -4.179768 -5.797238 -21.619680 2.327076 -0.220431 -63.495322 -5.184211 12.418402 5.948239 -24.937204 -5.997637 -8.589699 -15.265229 -11.853526 20.242297 4.916254 0.364877 59.301260 7.227483 15.579332 -3.712158 23.375929 -1.964255 10.806788 12.787636 -10.514655 
-50.142189 -352.158234 97.895287 -179.715994 1.201259 90.532901 0.873726 0.706108 3.654767 2.386765 -5.122248 -6.074577 -2.703330 7.357943 -0.317827 nan nan nan 0.292574 -2.624859 2.133511 0.155813 -1.615021 -2.704299 7.004087 -5.107971 1.529318 nan nan nan -0.091331 2.072024 3.005329 1.620318 -2.169008 2.828539 1.503839 -1.005683 -1.463333 -1.118985 -3.554208 -0.351194 4.683243 -4.122316 -5.700192 -21.603708 2.446893 -0.269409 -63.478194 -5.189257 12.446428 5.904321 -24.953350 -5.907783 -8.517672 -15.272280 -11.845553 20.225786 4.776578 0.241107 59.342026 7.334541 15.635564 -3.600130 23.287236 -1.823440 10.748510 12.737272 -10.375920 
-50.145245 -352.165192 97.896980 -179.767823 1.197242 90.551249 0.871681 0.725771 3.561502 2.349755 -5.123608 -5.932752 -2.713179 7.370320 -0.433642 nan nan nan 0.273129 -2.586318 2.068629 0.139328 -1.548113 -2.636937 7.050835 -5.096523 1.492018 nan nan nan -0.109406 2.054187 3.027981 1.624636 -2.157092 2.771091 1.512534 -1.044168 -1.439714 -1.091977 -3.554327 -0.382927 4.610242 -4.070424 -5.612199 -21.575833 2.562013 -0.301168 -63.502300 -5.162605 12.485077 5.890715 -25.024351 -5.759180 -8.359877 -15.241808 -11.859197 20.181496 4.633395 0.138293 59.371746 7.433783 15.681453 -3.466657 23.268896 -1.649581 10.661731 12.671575 -10.258027 
